<svg xmlns="http://www.w3.org/2000/svg" viewBox="0 0 64 64" role="img" aria-label="Matheus Scalabrin">
  <defs>
    <linearGradient id="frame" x1="0" y1="0" x2="0" y2="1">
      <stop offset="0" stop-color="#787f89"/>
      <stop offset="0.5" stop-color="#4a4f57"/>
      <stop offset="1" stop-color="#33383f"/>
    </linearGradient>
    <linearGradient id="upper" x1="0" y1="0" x2="0" y2="1">
      <stop offset="0" stop-color="#2a2d33"/>
      <stop offset="1" stop-color="#17181c"/>
    </linearGradient>
    <linearGradient id="lower" x1="0" y1="0" x2="0" y2="1">
      <stop offset="0" stop-color="#0d0e10"/>
      <stop offset="1" stop-color="#131418"/>
    </linearGradient>
    <clipPath id="plate">
      <rect x="3.5" y="3.5" width="57" height="57" rx="8.5"/>
    </clipPath>
  </defs>

  <rect width="64" height="64" rx="11.5" fill="url(#frame)"/>

  <g clip-path="url(#plate)">
    <rect x="3.5" y="3.5" width="57" height="28.5" fill="url(#upper)"/>
    <rect x="3.5" y="32" width="57" height="28.5" fill="url(#lower)"/>

    <path d="M13 47V19h10l9 16 9-16h10v28h-7V30l-9.5 16h-5L20 30v17Z" fill="#f2f2f2"/>

    <rect x="3.5" y="31" width="57" height="2" fill="#000"/>
    <rect x="3.5" y="33" width="57" height="4.5" fill="#000" opacity="0.4"/>
    <rect x="3.5" y="30" width="57" height="1" fill="#4a4e55" opacity="0.5"/>

    <circle cx="11.5" cy="10.5" r="3" fill="#4ec26a"/>
  </g>

  <rect x="0.75" y="0.75" width="62.5" height="62.5" rx="10.75" fill="none" stroke="#8d939c" stroke-opacity="0.45" stroke-width="1.5"/>
</svg>
